<svg xmlns="http://www.w3.org/2000/svg" width="512" height="512" viewBox="0 0 512 512" role="img" aria-labelledby="title desc">
  <title id="title">mac-onboarding logo</title>
  <desc id="desc">Clean sync icon made from two circular arrows.</desc>
  <defs>
    <linearGradient id="topArrow" x1="142" y1="118" x2="392" y2="250" gradientUnits="userSpaceOnUse">
      <stop offset="0%" stop-color="#22c55e"/>
      <stop offset="100%" stop-color="#38bdf8"/>
    </linearGradient>
    <linearGradient id="bottomArrow" x1="370" y1="394" x2="120" y2="262" gradientUnits="userSpaceOnUse">
      <stop offset="0%" stop-color="#fb7185"/>
      <stop offset="100%" stop-color="#f59e0b"/>
    </linearGradient>
    <filter id="shadow" x="-20%" y="-20%" width="140%" height="140%">
      <feDropShadow dx="0" dy="12" stdDeviation="18" flood-color="#020617" flood-opacity="0.35"/>
    </filter>
  </defs>

  <rect width="512" height="512" rx="112" fill="#0d1117"/>
  <rect x="42" y="42" width="428" height="428" rx="96" fill="#111827" stroke="#1f2937" stroke-width="8" filter="url(#shadow)"/>

  <g fill="none" stroke-linecap="round" stroke-linejoin="round">
    <path d="M142 234c13-70 74-122 147-122 52 0 99 27 126 69" stroke="url(#topArrow)" stroke-width="42"/>
    <path d="M389 118l35 67-75 4" stroke="url(#topArrow)" stroke-width="42"/>

    <path d="M370 278c-13 70-74 122-147 122-52 0-99-27-126-69" stroke="url(#bottomArrow)" stroke-width="42"/>
    <path d="M123 394l-35-67 75-4" stroke="url(#bottomArrow)" stroke-width="42"/>
  </g>
</svg>
