<svg xmlns="http://www.w3.org/2000/svg" width="512" height="512" viewBox="0 0 512 512" role="img" aria-labelledby="title desc">
  <title id="title">mac-onboarding logo</title>
  <desc id="desc">Terminal-inspired logo with a command prompt, transfer arrows, and a clean rounded frame.</desc>
  <defs>
    <linearGradient id="logo-glow" x1="0" y1="0" x2="1" y2="1">
      <stop offset="0%" stop-color="#22c55e"/>
      <stop offset="55%" stop-color="#38bdf8"/>
      <stop offset="100%" stop-color="#f59e0b"/>
    </linearGradient>
    <linearGradient id="logo-panel" x1="0" y1="0" x2="0" y2="1">
      <stop offset="0%" stop-color="#111827"/>
      <stop offset="100%" stop-color="#0f172a"/>
    </linearGradient>
  </defs>

  <rect width="512" height="512" rx="96" fill="#0d1117"/>
  <rect x="52" y="52" width="408" height="408" rx="54" fill="url(#logo-panel)" stroke="#30363d" stroke-width="8"/>
  <rect x="52" y="52" width="408" height="16" rx="8" fill="url(#logo-glow)"/>

  <circle cx="96" cy="103" r="9" fill="#f87171"/>
  <circle cx="125" cy="103" r="9" fill="#fbbf24"/>
  <circle cx="154" cy="103" r="9" fill="#4ade80"/>

  <path d="M126 201l60 55-60 55" fill="none" stroke="#22c55e" stroke-linecap="round" stroke-linejoin="round" stroke-width="20"/>
  <rect x="208" y="301" width="88" height="18" rx="9" fill="#22c55e"/>

  <path d="M232 197h130" fill="none" stroke="#38bdf8" stroke-linecap="round" stroke-width="18"/>
  <path d="M330 168l47 29-47 29" fill="none" stroke="#38bdf8" stroke-linecap="round" stroke-linejoin="round" stroke-width="18"/>

  <path d="M361 315H231" fill="none" stroke="#f59e0b" stroke-linecap="round" stroke-width="18"/>
  <path d="M263 286l-47 29 47 29" fill="none" stroke="#f59e0b" stroke-linecap="round" stroke-linejoin="round" stroke-width="18"/>
</svg>
